<svg width="56" height="32" viewBox="0 0 56 32" fill="none" xmlns="http://www.w3.org/2000/svg">
<g clip-path="url(#clip0_4112_12807)">
<path d="M47.2517 9H8.75171C7.78521 9 7.00171 9.44772 7.00171 10V26C7.00171 26.5523 9.53521 60 10.5017 60H49.0017C49.9682 60 49.0017 26.5523 49.0017 26V10C49.0017 9.44772 48.2182 9 47.2517 9Z" stroke="#0A65CC" stroke-width="2.5" stroke-linecap="round" stroke-linejoin="round"/>
<path d="M36.75 9V7C36.75 6.46957 36.3813 5.96086 35.7249 5.58579C35.0685 5.21071 34.1783 5 33.25 5H22.75C21.8217 5 20.9315 5.21071 20.2751 5.58579C19.6187 5.96086 19.25 6.46957 19.25 7V9" stroke="#0A65CC" stroke-width="2.5" stroke-linecap="round" stroke-linejoin="round"/>
<path d="M49.0017 15.7886C42.6193 17.8987 35.3737 19.0066 28 19C20.6275 19.0066 13.3831 17.8991 7.0014 15.7897" stroke="#0A65CC" stroke-width="2.5" stroke-linecap="round" stroke-linejoin="round"/>
<path d="M25.375 15H30.625" stroke="#0A65CC" stroke-width="2.5" stroke-linecap="round" stroke-linejoin="round"/>
</g>
<defs>
<clipPath id="clip0_4112_12807">
<rect width="56" height="32" fill="white"/>
</clipPath>
</defs>
</svg>
